<?xml version="1.0" encoding="UTF-8" standalone="no"?>
<!-- Created with Inkscape (http://www.inkscape.org/) -->

<svg
   xmlns:dc="http://purl.org/dc/elements/1.1/"
   xmlns:cc="http://creativecommons.org/ns#"
   xmlns:rdf="http://www.w3.org/1999/02/22-rdf-syntax-ns#"
   xmlns:svg="http://www.w3.org/2000/svg"
   xmlns="http://www.w3.org/2000/svg"
   xmlns:sodipodi="http://sodipodi.sourceforge.net/DTD/sodipodi-0.dtd"
   xmlns:inkscape="http://www.inkscape.org/namespaces/inkscape"
   width="612pt"
   height="792pt"
   id="svg29737"
   version="1.1"
   inkscape:version="0.48.4 r9939"
   sodipodi:docname="New document 37">
  <defs
     id="defs29739" />
  <sodipodi:namedview
     inkscape:document-units="in"
     pagecolor="#ffffff"
     bordercolor="#666666"
     borderopacity="1.0"
     inkscape:pageopacity="0.0"
     inkscape:pageshadow="2"
     inkscape:zoom="0.36"
     inkscape:cx="340"
     inkscape:cy="277.77778"
     inkscape:current-layer="layer1"
     id="namedview29741"
     showgrid="false"
     inkscape:window-width="767"
     inkscape:window-height="848"
     inkscape:window-x="65"
     inkscape:window-y="24"
     inkscape:window-maximized="0" />
  <metadata
     id="metadata29743">
    <rdf:RDF>
      <cc:Work
         rdf:about="">
        <dc:format>image/svg+xml</dc:format>
        <dc:type
           rdf:resource="http://purl.org/dc/dcmitype/StillImage" />
        <dc:title></dc:title>
      </cc:Work>
    </rdf:RDF>
  </metadata>
  <g
     inkscape:label="Layer 1"
     inkscape:groupmode="layer"
     id="layer1">
    <g
       id="g26649"
       transform="translate(-241.66677,-57.333307)">
      <g
         id="LINE_2960_"
         transform="matrix(-18.734109,0,0,-18.734109,22580.957,9199.4383)">
        <line
           style="fill:none;stroke:#000000;stroke-width:0.25;stroke-linecap:round;stroke-linejoin:round;stroke-miterlimit:10"
           id="line30320"
           y2="448.26599"
           x2="1176.8149"
           y1="439.776"
           x1="1185.306"
           stroke-miterlimit="10" />
      </g>
      <g
         id="LINE_2803_"
         transform="matrix(-18.734109,0,0,-18.734109,22580.957,9199.4383)">
        <line
           style="fill:none;stroke:#000000;stroke-width:0.25;stroke-linecap:round;stroke-linejoin:round;stroke-miterlimit:10"
           id="line31571"
           y2="444.021"
           x2="1172.5699"
           y1="435.53101"
           x1="1181.061"
           stroke-miterlimit="10" />
      </g>
      <g
         id="g26214"
         transform="matrix(-17,0,0,-17,23309.393,9169.1348)">
        <g
           transform="matrix(1.1020064,0,0,1.1020064,42.849225,-1.7825594)"
           id="ARC_2977_">
          <path
             d="m 1159.835,435.531 c -6.273,6.273 -7.044,16.181 -1.816,23.348"
             id="path31166"
             style="fill:none;stroke:#000000;stroke-width:0.25;stroke-linecap:round;stroke-linejoin:round;stroke-miterlimit:10"
             inkscape:connector-curvature="0" />
        </g>
        <g
           id="g26196">
          <g
             id="ARC_3243_"
             transform="matrix(1.1020064,0,0,1.1020064,42.849225,-1.7825594)">
            <path
               style="fill:none;stroke:#000000;stroke-width:0.25;stroke-linecap:round;stroke-linejoin:round;stroke-miterlimit:10"
               id="path29186"
               d="m 1162.391,463.125 c 8.206,5.621 19.416,3.527 25.038,-4.679 4.313,-6.296 4.19,-14.627 -0.307,-20.793"
               inkscape:connector-curvature="0" />
          </g>
          <g
             id="ARC_3242_"
             transform="matrix(1.1020064,0,0,1.1020064,42.849225,-1.7825594)">
            <path
               style="fill:none;stroke:#000000;stroke-width:0.25;stroke-linecap:round;stroke-linejoin:round;stroke-miterlimit:10"
               id="path29189"
               d="m 1166.473,458.609 c 5.712,3.368 13.073,1.468 16.441,-4.245 2.219,-3.763 2.219,-8.434 0,-12.196"
               inkscape:connector-curvature="0" />
          </g>
          <g
             id="LINE_3231_"
             transform="matrix(1.1020064,0,0,1.1020064,42.849225,-1.7825594)">
            <line
               style="fill:none;stroke:#000000;stroke-width:0.25;stroke-linecap:round;stroke-linejoin:round;stroke-miterlimit:10"
               id="line29192"
               y2="454.36401"
               x2="1182.9139"
               y1="437.65302"
               x1="1166.203"
               stroke-miterlimit="10" />
          </g>
          <g
             id="LINE_3230_"
             transform="matrix(1.1020064,0,0,1.1020064,42.849225,-1.7825594)">
            <line
               style="fill:none;stroke:#000000;stroke-width:0.25;stroke-linecap:round;stroke-linejoin:round;stroke-miterlimit:10"
               id="line29195"
               y2="458.60901"
               x2="1178.6689"
               y1="442.16699"
               x1="1162.228"
               stroke-miterlimit="10" />
          </g>
          <g
             id="ARC_2985_"
             transform="matrix(1.1020064,0,0,1.1020064,42.849225,-1.7825594)">
            <path
               style="fill:none;stroke:#000000;stroke-width:0.25;stroke-linecap:round;stroke-linejoin:round;stroke-miterlimit:10"
               id="path31124"
               d="m 1159.835,456.756 c -7.033,7.033 -7.033,18.438 0,25.471 7.034,7.034 18.438,7.034 25.471,0 6.273,-6.273 7.045,-16.181 1.816,-23.349"
               inkscape:connector-curvature="0" />
          </g>
          <g
             id="LINE_2843_"
             transform="matrix(1.1020064,0,0,1.1020064,42.849225,-1.7825594)">
            <line
               style="fill:none;stroke:#000000;stroke-width:0.25;stroke-linecap:round;stroke-linejoin:round;stroke-miterlimit:10"
               id="line31127"
               y2="448.26599"
               x2="1168.325"
               y1="456.75601"
               x1="1159.835"
               stroke-miterlimit="10" />
          </g>
          <g
             id="ARC_2700_"
             transform="matrix(1.1020064,0,0,1.1020064,42.849225,-1.7825594)">
            <path
               style="fill:none;stroke:#000000;stroke-width:0.25;stroke-linecap:round;stroke-linejoin:round;stroke-miterlimit:10"
               id="path32510"
               d="m 1164.08,461.001 c -4.688,4.689 -4.688,12.292 0,16.98 4.689,4.689 12.292,4.689 16.98,0 3.955,-3.955 4.655,-10.116 1.689,-14.857"
               inkscape:connector-curvature="0" />
          </g>
          <g
             id="LINE_2670_"
             transform="matrix(1.1020064,0,0,1.1020064,42.849225,-1.7825594)">
            <line
               style="fill:none;stroke:#000000;stroke-width:0.25;stroke-linecap:round;stroke-linejoin:round;stroke-miterlimit:10"
               id="line32513"
               y2="452.51099"
               x2="1172.5699"
               y1="461.00101"
               x1="1164.08"
               stroke-miterlimit="10" />
          </g>
        </g>
        <g
           transform="matrix(1.1020064,0,0,1.1020064,42.849225,-1.7825594)"
           id="ARC_2637_">
          <path
             d="m 1164.08,439.776 c -3.871,3.871 -4.634,9.872 -1.853,14.588"
             id="path32855"
             style="fill:none;stroke:#000000;stroke-width:0.25;stroke-linecap:round;stroke-linejoin:round;stroke-miterlimit:10"
             inkscape:connector-curvature="0" />
        </g>
      </g>
    </g>
  </g>
</svg>
